<svg xmlns="http://www.w3.org/2000/svg" xmlns:xlink="http://www.w3.org/1999/xlink" width="48" height="48" viewBox="0 0 48 48">
    <defs>
        <linearGradient id="a" x1="50%" x2="50%" y1="100%" y2="0%">
            <stop offset="0%" stop-color="#EEE"/>
            <stop offset="100%" stop-color="#F9F9F9"/>
        </linearGradient>
        <rect id="c" width="323" height="124" rx="3"/>
        <filter id="b" width="170.6%" height="283.9%" x="-35.3%" y="-62.9%" filterUnits="objectBoundingBox">
            <feOffset dy="36" in="SourceAlpha" result="shadowOffsetOuter1"/>
            <feGaussianBlur in="shadowOffsetOuter1" result="shadowBlurOuter1" stdDeviation="32"/>
            <feColorMatrix in="shadowBlurOuter1" values="0 0 0 0 0.918128189 0 0 0 0 0.918128189 0 0 0 0 0.918128189 0 0 0 1 0"/>
        </filter>
    </defs>
    <g fill="none" fill-rule="evenodd">
        <path fill="url(#a)" d="M0 64h375v603H0z" transform="translate(-58 -570)"/>
        <g transform="translate(-32 -38)">
            <use fill="#000" filter="url(#b)" xlink:href="#c"/>
            <use fill="#FFF" xlink:href="#c"/>
        </g>
        <g>
            <path d="M0 0h48v48H0z"/>
            <path fill="#FFD600" fill-opacity=".75" d="M7 29h34v9.26H7V29z"/>
            <path fill="#888" fill-rule="nonzero" d="M46.973 40.293H28.061a.94.94 0 0 0-.941.938c0 .861-.704 1.562-1.568 1.562h-3.128c-.865 0-1.568-.7-1.568-1.562a.94.94 0 0 0-.941-.938H5.22v-24.09a1.96 1.96 0 0 1 1.961-1.953H18.92l.009.082-1.956 1.838a8.939 8.939 0 0 0-2.67 6.393v4.187a.938.938 0 0 0 .941.937.943.943 0 0 0 .63-.241l4.12-3.701a.94.94 0 0 0 .544.426c1.106.326 2.252.493 3.405.497h.042c1.167 0 2.326-.167 3.446-.497a.939.939 0 0 0 .554-.445l4.14 3.72a.944.944 0 0 0 1.572-.696v-4.186a8.939 8.939 0 0 0-2.65-6.374l-1.81-1.802.018-.138h11.563a1.96 1.96 0 0 1 1.961 1.953v17.189a.94.94 0 0 0 .941.937.94.94 0 0 0 .941-.937V16.203c0-2.11-1.724-3.828-3.843-3.828H29.473c.33-4.266-1.11-8.48-4.01-11.668l-.166-.182A1.61 1.61 0 0 0 24.107 0h-.012A1.61 1.61 0 0 0 22.9.543l-.312.353a15.602 15.602 0 0 0-3.857 11.479H7.182c-2.119 0-3.843 1.717-3.843 3.828v24.09H1.027a.94.94 0 0 0-.941.938v1.461C.086 45.62 2.476 48 5.414 48h37.172c2.938 0 5.328-2.38 5.328-5.307V41.23a.94.94 0 0 0-.94-.938zm-18.483-20l.45-3.55.775.773a7.08 7.08 0 0 1 2.1 5.048v2.078l-3.48-3.127.155-1.222zM24.002 2.135l.108-.122a13.668 13.668 0 0 1 3.42 10.885l-.217 1.709v.002l-.907 7.157-.096.761c-.762.177-1.541.266-2.325.266h-.035c-.767-.003-1.53-.091-2.276-.262l-.741-7.13-.084-.802-.207-1.988a13.723 13.723 0 0 1 3.36-10.476zm-4.327 19.37l-3.49 3.136v-2.077a7.08 7.08 0 0 1 2.09-5.04l.898-.843.502 4.825zm22.911 24.62H5.414c-1.9 0-3.446-1.54-3.446-3.433v-.524h17.136a3.455 3.455 0 0 0 3.32 2.5h3.127a3.455 3.455 0 0 0 3.32-2.5h17.161v.525a3.443 3.443 0 0 1-3.446 3.432z"/>
            <path d="M39.892 16.343h-4.738a.94.94 0 0 0-.941.937.94.94 0 0 0 .94.938h3.798V36.38H9.365V18.218h2.985a.94.94 0 0 0 .942-.938.94.94 0 0 0-.942-.937H8.424a.94.94 0 0 0-.941.937v20.038a.94.94 0 0 0 .941.938h31.468a.94.94 0 0 0 .941-.938V17.28a.94.94 0 0 0-.941-.937z"/>
            <path fill="#888" fill-rule="nonzero" d="M21.553 26.03c.52 0 .94.42.94.937v3.816a.94.94 0 0 1-.94.938.94.94 0 0 1-.941-.938v-3.816a.94.94 0 0 1 .94-.937zm4.781-.218c.52 0 .942.42.942.938v5.627a.94.94 0 0 1-.942.938.94.94 0 0 1-.94-.938V26.75a.94.94 0 0 1 .94-.938z"/>
            <ellipse cx="24" cy="9.897" fill="#BABABA" rx="1" ry="1"/>
            <ellipse cx="43.721" cy="37.478" fill="#BABABA" fill-rule="nonzero" rx="1" ry="1"/>
        </g>
    </g>
</svg>
