<svg xmlns="http://www.w3.org/2000/svg" width="103" height="32" viewBox="0 0 103 32">
    <g fill="none" fill-rule="evenodd">
        <path fill="#2E3238" fill-rule="nonzero" d="M52.858 22.659V6.9a.9.9 0 0 1 1.8 0v15.05l1.028-.403a1.61 1.61 0 0 0 1.028-1.512V9.128a.9.9 0 1 1 1.8 0v10.907a3.4 3.4 0 0 1-2.167 3.181l-6.191 2.447a.898.898 0 0 1-.326.051.898.898 0 0 1-.33-1.735l3.358-1.32zM45.086 9.1h-4.144a.9.9 0 0 1 0-1.8h4.144c.243 0 .48-.072.684-.205l1.432-.93a.9.9 0 0 1 .982 1.507l-1.433.93a3.051 3.051 0 0 1-1.665.498zm-.233 15.716V14.607a1.619 1.619 0 0 0-1.627-1.619H40.9a.9.9 0 1 1 0-1.8h2.326a3.419 3.419 0 0 1 3.418 3.419v10.21c0 .493-.399.894-.893.897a.898.898 0 0 1-.898-.898zm-3.583.635a.898.898 0 0 1-.263-.635V15.98a.9.9 0 1 1 1.8 0v8.837a.898.898 0 0 1-.902.898.898.898 0 0 1-.635-.263zm8.56-3.304a.898.898 0 0 1-.897-.898V9.128a.9.9 0 1 1 1.8 0v12.116a.898.898 0 0 1-.903.903zM72.198 8.23V6.92a.9.9 0 1 1 1.8 0v1.307h3.916a3.419 3.419 0 0 1 3.419 3.418v10.651a3.419 3.419 0 0 1-3.419 3.419h-5.535a3.419 3.419 0 0 1-3.419-3.419v-10.65a3.419 3.419 0 0 1 3.238-3.415zm-7.112 6.898v-5.102h-3.21a.9.9 0 1 1 0-1.8h3.21v-1.28a.93.93 0 0 1 .61-.893.902.902 0 0 1 1.19.852v15.39a3.419 3.419 0 0 1-3.423 3.419h-2.265a.93.93 0 0 1-.893-.61.902.902 0 0 1 .85-1.19h2.326a1.619 1.619 0 0 0 1.605-1.619v-5.367h-3.21a.9.9 0 1 1 0-1.8h3.21zm7.293-5.102c-.894 0-1.619.724-1.619 1.618v10.651c0 .894.725 1.619 1.62 1.619h5.534c.894 0 1.619-.725 1.619-1.619v-10.65c0-.895-.725-1.62-1.619-1.62h-5.535z"/>
        <path fill="#FFD600" fill-rule="nonzero" d="M75.147 15.384a1.395 1.395 0 1 1 0 2.79 1.395 1.395 0 0 1 0-2.79zm0-1.772a3.163 3.163 0 1 0 0 6.325 3.163 3.163 0 0 0 0-6.325z"/>
        <path fill="#2E3238" d="M97.786 19.98c.701 0 1.27.568 1.27 1.269v1.395a1.27 1.27 0 0 1-1.27 1.27H86.872a.9.9 0 0 0 0 1.8h10.914a3.07 3.07 0 0 0 3.07-3.07V21.25a3.07 3.07 0 0 0-3.07-3.07h-8.279a1.27 1.27 0 0 1-1.27-1.27v-.96a.9.9 0 1 0-1.8 0v.96a3.07 3.07 0 0 0 3.07 3.07h8.279z"/>
        <path stroke="#2E3238" stroke-width="1.8" d="M87.74 7.028a2.17 2.17 0 0 0-2.17 2.17v1.395a2.17 2.17 0 0 0 2.17 2.17h10.418a2.17 2.17 0 0 0 2.17-2.17V9.198a2.17 2.17 0 0 0-2.17-2.17H87.74z"/>
        <path fill="#2E3238" d="M84.59 15.02h16.717a.9.9 0 1 1 0 1.8H84.591a.9.9 0 1 1 0-1.8z"/>
        <g>
            <path fill="#FFD600" d="M22.132 0H9.868C6.4 0 4.184 0 2.1 2.096.016 4.192 0 6.4 0 9.868v12.264C0 25.6 0 27.816 2.096 29.9 4.192 31.984 6.4 32 9.868 32h12.264c3.476 0 5.68 0 7.764-2.096C31.98 27.808 32 25.6 32 22.132V9.868c0-3.476 0-5.68-2.096-7.764C27.808.02 25.6 0 22.132 0z"/>
            <path fill="#FFF" fill-rule="nonzero" d="M25.56 10.036l.84-.836a1.068 1.068 0 0 0 0-1.508l-.756-.756a1.068 1.068 0 0 0-1.508 0l-.772.772A11.676 11.676 0 0 0 17.6 5.2v-.932c0-.59-.478-1.068-1.068-1.068h-1.064c-.59 0-1.068.478-1.068 1.068V5.2a11.676 11.676 0 0 0-5.768 2.492l-.776-.772a1.068 1.068 0 0 0-1.508 0l-.748.764a1.068 1.068 0 0 0 0 1.516l.844.844a11.732 11.732 0 1 0 19.124 0l-.008-.008z"/>
            <path fill="#2A3137" d="M16 6.696c5.595 0 10.131 4.535 10.132 10.13 0 5.596-4.534 10.133-10.13 10.134-5.595.001-10.132-4.533-10.134-10.128A10.132 10.132 0 0 1 16 6.696z"/>
            <circle cx="16" cy="16.832" r="6.932" fill="#666A75" fill-rule="nonzero"/>
            <circle cx="16" cy="16.832" r="3.468" fill="#2A3137" fill-rule="nonzero"/>
            <circle cx="14.8" cy="18.268" r="1" fill="#FFF" fill-rule="nonzero"/>
            <circle cx="16.932" cy="16.132" r="1" fill="#FFF" fill-rule="nonzero"/>
        </g>
    </g>
</svg>
