<svg xmlns="http://www.w3.org/2000/svg" xmlns:xlink="http://www.w3.org/1999/xlink" width="48" height="48" viewBox="0 0 48 48">
    <defs>
        <linearGradient id="a" x1="50%" x2="50%" y1="100%" y2="0%">
            <stop offset="0%" stop-color="#EDEDED"/>
            <stop offset="100%" stop-color="#F9F9F9"/>
        </linearGradient>
        <rect id="c" width="323" height="124" rx="3"/>
        <filter id="b" width="170.6%" height="283.9%" x="-35.3%" y="-62.9%" filterUnits="objectBoundingBox">
            <feOffset dy="36" in="SourceAlpha" result="shadowOffsetOuter1"/>
            <feGaussianBlur in="shadowOffsetOuter1" result="shadowBlurOuter1" stdDeviation="32"/>
            <feColorMatrix in="shadowBlurOuter1" values="0 0 0 0 0.918128189 0 0 0 0 0.918128189 0 0 0 0 0.918128189 0 0 0 1 0"/>
        </filter>
        <path id="d" d="M33.248 19.907H31.81a.826.826 0 0 1-.826-.825v-.837c0-.455.37-.825.826-.825h1.595c.369 0 .67.3.67.67a.938.938 0 0 0 1.874 0 2.547 2.547 0 0 0-2.482-2.544v-.805a.938.938 0 0 0-1.875 0v.813a2.703 2.703 0 0 0-2.482 2.69v.838c0 1.489 1.21 2.7 2.7 2.7h1.439c.455 0 .825.37.825.825v.838c0 .455-.37.825-.825.825h-1.595a.67.67 0 0 1-.67-.67.938.938 0 0 0-1.874 0 2.547 2.547 0 0 0 2.482 2.543v.805a.938.938 0 0 0 1.875 0v-.813a2.703 2.703 0 0 0 2.482-2.69v-.838c0-1.488-1.211-2.7-2.7-2.7z"/>
        <path id="e" d="M46.866 31.782a3.552 3.552 0 0 0-1.98-1.89 3.551 3.551 0 0 0-2.736.063l-5.919 2.73a.938.938 0 0 0 .785 1.703l5.898-2.72c.414-.18.874-.19 1.295-.027.424.164.758.483.941.898.184.416.194.878.03 1.302a1.69 1.69 0 0 1-.898.941l-12.085 5.336a6.972 6.972 0 0 1-5.934-.135l-4.424-2.197a8.84 8.84 0 0 0-7.526-.171l-3.335-7.401 4.559-2.013a9.1 9.1 0 0 1 6.845-.219l8.895 3.267a1.579 1.579 0 0 1 .944 1.982 1.573 1.573 0 0 1-1.988.978l-6.879-2.326a.937.937 0 1 0-.6 1.776l6.879 2.326c.363.124.734.182 1.098.182a3.454 3.454 0 0 0 3.264-2.33 3.464 3.464 0 0 0-2.071-4.348l-8.896-3.267a11.11 11.11 0 0 0-1.824-.498V20.54c0-5.11 4.158-9.267 9.267-9.267h3.424c5.11 0 9.267 4.158 9.267 9.267v2.444a.938.938 0 0 0 1.875 0V20.54c0-5.411-3.878-9.933-9-10.934V6.783l2.368-4.052a.937.937 0 0 0-.421-1.327L35.079.084a.938.938 0 0 0-.706-.029l-2.156.776-1.912-.764a.939.939 0 0 0-.685-.004l-3.04 1.173a.938.938 0 0 0-.483 1.33L28.43 6.77v2.816c-5.172.962-9.1 5.508-9.1 10.954v5.003a10.99 10.99 0 0 0-4.55.941l-4.593 2.028a2.305 2.305 0 0 0-1.089-.872 2.306 2.306 0 0 0-1.775.04l-5.934 2.6a.937.937 0 0 0-.561.858v15.924a.938.938 0 0 0 1.36.836l11.52-5.819a2.308 2.308 0 0 0 1.203-1.275c.18-.466.206-.966.078-1.44 1.987-.877 4.15-.827 6.016.1l4.423 2.197a8.843 8.843 0 0 0 7.526.17l12.085-5.335a3.552 3.552 0 0 0 1.89-1.98 3.552 3.552 0 0 0-.063-2.735zM34.162 9.4H30.305V7.466h3.857V9.4zm-5.903-6.802l1.692-.652 1.901.76c.213.085.45.089.666.011l2.132-.768 1.612.733-1.7 2.91h-4.643l-1.66-2.994zm-15.334 37.78a.994.994 0 0 0-.044.02L2.703 45.539v-3.8l2.635-1.294a.938.938 0 0 0-.826-1.683l-1.81.889v-7.899l5.375-2.355a.447.447 0 0 1 .592.23l.215.486 4.27 9.672a.449.449 0 0 1-.229.591z"/>
    </defs>
    <g fill="none" fill-rule="evenodd">
        <path fill="url(#a)" d="M0 64h375v603H0z" transform="translate(-58 -401)"/>
        <g transform="translate(-32 -38)">
            <use fill="#000" filter="url(#b)" xlink:href="#c"/>
            <use fill="#FFF" xlink:href="#c"/>
        </g>
        <path d="M0 0h48v48H0z"/>
        <path fill="#FFD600" fill-opacity=".75" d="M32.54 13.097v19.844l8.901-4.198v-8.07c0-1.848-.52-3.808-2.719-5.678-2.198-1.87-4.744-1.885-6.182-1.898z"/>
        <path fill="#BABABA" fill-rule="nonzero" d="M8.197 39.065a.937.937 0 1 1 0-1.875.937.937 0 0 1 0 1.875zM44.1 27.885a.937.937 0 1 1 0-1.875.937.937 0 0 1 0 1.875z"/>
        <g fill-rule="evenodd">
            <use fill="#BABABA" xlink:href="#d"/>
            <use fill="#888" xlink:href="#d"/>
        </g>
        <g fill-rule="evenodd">
            <use fill="#BABABA" xlink:href="#e"/>
            <use fill="#888" xlink:href="#e"/>
        </g>
    </g>
</svg>
