<svg xmlns="http://www.w3.org/2000/svg" width="48" height="48" viewBox="0 0 48 48">
    <g fill="none" fill-rule="evenodd">
        <path fill="#FFD600" fill-opacity=".75" d="M30.235 30.556c-1.996-1.804-4.075-2.706-6.237-2.706-2.2 0-4.213.934-6.038 2.802A8.962 8.962 0 0 1 15.01 24c0-4.97 4.045-9 9.034-9 4.99 0 9.034 4.03 9.034 9a8.96 8.96 0 0 1-2.844 6.556zm-6.71-3.554a3.507 3.507 0 0 0 3.514-3.5c0-1.933-1.573-3.5-3.513-3.5a3.507 3.507 0 0 0-3.513 3.5c0 1.933 1.573 3.5 3.513 3.5z"/>
        <path fill="#888" fill-rule="nonzero" d="M44.666 20.666a3.34 3.34 0 0 0-3.2 2.396h-4.558a12.888 12.888 0 0 0-3.122-7.523l3.227-3.226a3.316 3.316 0 0 0 1.6.408c.89 0 1.728-.346 2.358-.976.63-.63.976-1.467.976-2.358 0-.89-.347-1.728-.976-2.358a3.313 3.313 0 0 0-2.358-.976c-.89 0-1.728.347-2.358.976a3.313 3.313 0 0 0-.976 2.358c0 .569.142 1.115.408 1.6l-3.226 3.227a12.889 12.889 0 0 0-7.523-3.122V6.533a3.34 3.34 0 0 0 2.396-3.199A3.338 3.338 0 0 0 24 0a3.338 3.338 0 0 0-3.334 3.334 3.34 3.34 0 0 0 2.396 3.2v4.558a12.888 12.888 0 0 0-7.523 3.122l-3.226-3.227a3.316 3.316 0 0 0 .408-1.6c0-.89-.346-1.728-.976-2.358a3.313 3.313 0 0 0-2.358-.976c-.89 0-1.728.347-2.358.976a3.313 3.313 0 0 0-.976 2.358c0 .89.347 1.728.976 2.358.63.63 1.467.976 2.358.976.569 0 1.115-.142 1.6-.408l3.227 3.226a12.888 12.888 0 0 0-3.122 7.524H6.533a3.34 3.34 0 0 0-3.199-2.397A3.338 3.338 0 0 0 0 24a3.338 3.338 0 0 0 3.334 3.334 3.34 3.34 0 0 0 3.2-2.396h4.558a12.888 12.888 0 0 0 3.122 7.523l-3.228 3.227a3.34 3.34 0 0 0-3.957.567 3.338 3.338 0 0 0 0 4.716c.63.63 1.468.976 2.358.976.89 0 1.728-.347 2.358-.976a3.34 3.34 0 0 0 .567-3.957l3.228-3.228a12.889 12.889 0 0 0 7.523 3.122v4.558a3.34 3.34 0 0 0-2.397 3.2A3.338 3.338 0 0 0 24 48a3.338 3.338 0 0 0 3.334-3.334 3.34 3.34 0 0 0-2.396-3.2v-4.558a12.877 12.877 0 0 0 7.04-2.723.935.935 0 0 0 .15-.122c.113-.09.224-.182.333-.277l3.227 3.228a3.34 3.34 0 0 0 .567 3.957c.63.63 1.467.976 2.358.976.89 0 1.728-.347 2.358-.976 1.3-1.3 1.3-3.416 0-4.716a3.34 3.34 0 0 0-3.957-.567l-3.228-3.227a12.889 12.889 0 0 0 3.122-7.523h4.559a3.34 3.34 0 0 0 3.199 2.396A3.338 3.338 0 0 0 48 24a3.338 3.338 0 0 0-3.334-3.334zM37.58 8.356a1.455 1.455 0 0 1 1.032-.427c.373 0 .747.142 1.032.426a1.46 1.46 0 0 1-1.032 2.491 1.45 1.45 0 0 1-1.032-.427 1.45 1.45 0 0 1-.428-1.032c0-.39.152-.756.428-1.032zm-27.162 2.063a1.46 1.46 0 0 1-2.064 0 1.46 1.46 0 0 1 1.032-2.49c.374 0 .747.142 1.032.426a1.46 1.46 0 0 1 0 2.064zm-7.085 15.04A1.46 1.46 0 0 1 1.875 24a1.46 1.46 0 0 1 2.919 0 1.46 1.46 0 0 1-1.46 1.46zm7.085 14.186a1.45 1.45 0 0 1-1.032.427 1.46 1.46 0 0 1 0-2.918 1.46 1.46 0 0 1 1.032 2.49zm27.162-2.064a1.455 1.455 0 0 1 1.032-.427 1.46 1.46 0 0 1 0 2.918 1.46 1.46 0 0 1-1.032-2.49zM22.54 3.334c0-.804.654-1.459 1.459-1.459s1.46.655 1.46 1.46c0 .804-.655 1.459-1.46 1.459a1.46 1.46 0 0 1-1.46-1.46zm2.918 41.332A1.46 1.46 0 0 1 24 46.125a1.46 1.46 0 0 1-1.46-1.46 1.46 1.46 0 0 1 2.919 0zm6.449-12.931a8.418 8.418 0 0 0-2.496-3.243 8.626 8.626 0 0 0-2.432-1.348A4.481 4.481 0 0 0 28.266 24a4.502 4.502 0 0 0-4.497-4.497A4.502 4.502 0 0 0 19.272 24c0 1.288.545 2.45 1.415 3.27a8.603 8.603 0 0 0-2.34 1.42.938.938 0 1 0 1.218 1.426A6.834 6.834 0 0 1 24 28.496c2.931 0 5.529 1.874 6.396 4.531A11.007 11.007 0 0 1 24 35.067c-6.103 0-11.067-4.964-11.067-11.067S17.897 12.933 24 12.933 35.067 17.897 35.067 24a11.03 11.03 0 0 1-3.16 7.735zm12.758-6.276A1.46 1.46 0 0 1 43.206 24a1.46 1.46 0 0 1 2.919 0 1.46 1.46 0 0 1-1.46 1.46zM26.39 24a2.625 2.625 0 0 1-2.622 2.622A2.625 2.625 0 0 1 21.147 24a2.625 2.625 0 0 1 2.622-2.622A2.625 2.625 0 0 1 26.39 24z"/>
        <circle cx="17.391" cy="31.097" r="1" fill="#BABABA" fill-rule="nonzero"/>
    </g>
</svg>
