<svg xmlns="http://www.w3.org/2000/svg" xmlns:xlink="http://www.w3.org/1999/xlink" width="48" height="48" viewBox="0 0 48 48">
    <defs>
        <linearGradient id="a" x1="50%" x2="50%" y1="100%" y2="0%">
            <stop offset="0%" stop-color="#EDEDED"/>
            <stop offset="100%" stop-color="#F9F9F9"/>
        </linearGradient>
        <rect id="c" width="323" height="124" rx="3"/>
        <filter id="b" width="170.6%" height="283.9%" x="-35.3%" y="-62.9%" filterUnits="objectBoundingBox">
            <feOffset dy="36" in="SourceAlpha" result="shadowOffsetOuter1"/>
            <feGaussianBlur in="shadowOffsetOuter1" result="shadowBlurOuter1" stdDeviation="32"/>
            <feColorMatrix in="shadowBlurOuter1" values="0 0 0 0 0.918128189 0 0 0 0 0.918128189 0 0 0 0 0.918128189 0 0 0 1 0"/>
        </filter>
    </defs>
    <g fill="none" fill-rule="evenodd">
        <path fill="url(#a)" d="M0 64h375v603H0z" transform="translate(-58 -541)"/>
        <g transform="translate(-32 -38)">
            <use fill="#000" filter="url(#b)" xlink:href="#c"/>
            <use fill="#FFF" xlink:href="#c"/>
        </g>
        <g>
            <path fill="#FFD600" fill-opacity=".75" d="M24.88 27.52l-4.405 4.282h23.742V19.037a1 1 0 0 0-1.705-.708l-7.367 7.337-1.784-2.156-5.696 5.696-2.208-2.208-.577.521z"/>
            <path fill="#888" fill-rule="nonzero" d="M42.808 18.92a.937.937 0 1 1 0-1.875.937.937 0 0 1 0 1.875zm-2.201 1.263a.938.938 0 0 1 0 1.326l-4.68 4.679a.938.938 0 0 1-1.325 0l-1.465-1.465-5.176 5.177a.938.938 0 0 1-1.326 0l-1.446-1.446-2.026 2.026a.935.935 0 0 1-1.326 0 .938.938 0 0 1 0-1.326l2.69-2.69a.938.938 0 0 1 1.325 0l1.446 1.447 5.177-5.177a.938.938 0 0 1 1.325 0l1.465 1.465 4.016-4.016a.938.938 0 0 1 1.326 0z"/>
            <path fill="#888" fill-rule="nonzero" d="M45.207 7.351h-7.29a5.467 5.467 0 0 0-5.378-4.522 5.467 5.467 0 0 0-5.377 4.522h-7.29a2.796 2.796 0 0 0-2.793 2.793v4.721H11.86a4.418 4.418 0 0 0 .821-2.568A4.449 4.449 0 0 0 8.24 7.853a4.449 4.449 0 0 0-4.444 4.444 4.43 4.43 0 0 0 1.382 3.216C2.137 16.765 0 19.696 0 23.103v6.983c0 2.123 1.65 3.876 3.764 4.1v9.11H1.42a.938.938 0 0 0 0 1.874h25.818a83947.006 83947.006 0 0 0 18.94 0 .938.938 0 0 0 0-1.875h-7.044l-2.686-8.004h8.76A2.796 2.796 0 0 0 48 32.498V10.144a2.796 2.796 0 0 0-2.793-2.793zM32.539 4.704A3.591 3.591 0 0 1 36 7.351h-6.92a3.591 3.591 0 0 1 3.46-2.647zM11.414 19.737v23.558h-1.95V32.756a.938.938 0 0 0-1.875 0v10.54H5.64v-19.95a.937.937 0 1 0-1.875 0v8.947c-1.076-.206-1.889-1.117-1.889-2.207v-6.982c0-3.509 2.957-6.364 6.591-6.364h17.229a3.002 3.002 0 0 1-2.847 2.06H12.352a.938.938 0 0 0-.938.937zm25.742 23.558h-8.609l2.686-8.004h3.236l2.687 8.004zm8.969-10.797a.92.92 0 0 1-.918.918H19.872a.92.92 0 0 1-.918-.918v-5.485a.938.938 0 0 0-1.875 0v5.485a2.796 2.796 0 0 0 2.793 2.793h9.384l-2.687 8.004H13.29v-22.62h9.56a4.877 4.877 0 0 0 4.871-4.872.938.938 0 0 0-.937-.937h-7.83v-4.722a.92.92 0 0 1 .919-.918h25.335a.92.92 0 0 1 .918.918v22.354zM8.239 9.728a2.572 2.572 0 0 1 2.568 2.569 2.572 2.572 0 0 1-2.568 2.568 2.572 2.572 0 0 1-2.57-2.568 2.572 2.572 0 0 1 2.57-2.57z"/>
            <circle cx="18.016" cy="23.425" r="1" fill="#BABABA"/>
        </g>
    </g>
</svg>
